<?xml version="1.0" standalone="no"?>
<!DOCTYPE svg PUBLIC "-//W3C//DTD SVG 20010904//EN"
 "http://www.w3.org/TR/2001/REC-SVG-20010904/DTD/svg10.dtd">
<svg version="1.0" xmlns="http://www.w3.org/2000/svg"
 width="700.000000pt" height="700.000000pt" viewBox="0 0 700.000000 700.000000"
 preserveAspectRatio="xMidYMid meet">
<metadata>
Created by potrace 1.11, written by Peter Selinger 2001-2013
</metadata>
<g transform="translate(0.000000,700.000000) scale(0.100000,-0.100000)"
fill="#000000" stroke="none">
<path d="M3420 6821 c-25 -16 -178 -106 -340 -200 -162 -95 -300 -178 -307
-184 -19 -19 -2 -34 94 -88 44 -25 286 -164 638 -367 138 -79 266 -153 285
-164 19 -11 91 -53 160 -93 69 -39 145 -83 170 -97 25 -14 101 -58 170 -98 69
-40 145 -84 170 -98 25 -14 113 -65 197 -113 83 -49 169 -98 190 -110 21 -12
127 -73 236 -136 110 -63 213 -122 231 -132 18 -10 69 -40 114 -66 50 -29 86
-45 92 -39 5 5 10 189 11 422 1 340 -1 416 -12 426 -8 7 -169 102 -359 211
-190 109 -397 228 -460 265 -63 37 -135 78 -160 92 -25 14 -205 117 -400 230
-195 113 -370 214 -389 224 -18 10 -41 24 -50 29 -81 51 -204 115 -218 114
-10 0 -38 -13 -63 -28z"/>
<path d="M2400 6219 c-124 -72 -313 -182 -420 -243 -827 -477 -1367 -791
-1375 -801 -9 -11 -10 -183 -6 -784 1 -61 2 -63 24 -59 13 3 170 89 348 193
178 103 423 245 544 315 121 70 236 137 255 147 19 11 123 71 230 133 107 63
263 152 345 200 159 92 323 187 575 333 85 49 169 98 187 108 152 87 244 143
253 154 9 11 3 19 -27 38 -31 20 -326 193 -422 247 -14 8 -78 45 -142 83 -64
37 -123 67 -130 67 -8 0 -115 -59 -239 -131z"/>
<path d="M3505 5831 c-6 -5 -37 -23 -70 -41 -33 -18 -64 -36 -70 -40 -5 -4
-30 -19 -55 -32 -25 -14 -138 -79 -250 -144 -113 -65 -308 -178 -435 -251
l-230 -132 -1 -420 c-1 -320 1 -423 10 -431 9 -7 88 34 282 146 148 86 292
168 319 184 58 32 286 165 330 191 17 11 36 22 43 25 8 4 122 69 254 145 132
77 243 139 246 139 3 0 13 6 21 14 9 7 36 24 61 38 25 13 56 31 70 39 14 9 69
40 122 70 59 32 98 60 98 70 0 14 -70 57 -429 265 -20 12 -91 53 -158 93 -141
82 -145 84 -158 72z"/>
<path d="M5653 5592 c-14 -9 -13 -3165 0 -3179 5 -4 30 4 55 18 331 186 669
382 677 393 9 12 13 2351 4 2361 -5 4 -662 381 -700 400 -14 8 -30 10 -36 7z"/>
<path d="M4378 5303 c-10 -2 -18 -9 -18 -14 0 -5 -4 -9 -9 -9 -5 0 -87 -46
-183 -101 -95 -56 -216 -127 -268 -157 -211 -122 -231 -135 -228 -151 2 -12
619 -382 697 -418 8 -3 91 -51 185 -106 94 -55 191 -111 216 -125 25 -13 50
-28 55 -32 6 -4 30 -19 55 -32 25 -14 86 -49 135 -78 50 -29 110 -64 135 -78
25 -14 114 -65 198 -115 113 -65 157 -86 165 -78 8 8 12 138 14 425 2 380 1
415 -15 428 -16 14 -149 93 -257 153 -27 15 -102 58 -165 95 -279 163 -689
400 -692 399 -2 -1 -11 -3 -20 -6z"/>
<path d="M1955 4949 c-143 -82 -305 -175 -361 -208 l-100 -59 0 -653 1 -652
195 -114 c107 -62 204 -117 215 -122 11 -5 83 -46 159 -90 77 -45 149 -83 160
-84 l21 -2 0 1065 c0 939 -2 1065 -15 1067 -8 1 -132 -66 -275 -148z"/>
<path d="M975 4390 c-192 -110 -354 -206 -360 -213 -7 -9 -9 -418 -8 -1187 l1
-1173 304 -174 c166 -96 310 -177 318 -181 8 -3 35 -18 58 -33 24 -15 50 -25
57 -23 11 4 13 289 10 1587 -1 870 -3 1585 -4 1590 0 4 -7 7 -13 7 -7 0 -170
-90 -363 -200z"/>
<path d="M4757 4033 c-4 -3 -7 -483 -7 -1065 0 -885 2 -1059 14 -1064 10 -4
402 211 486 266 8 6 24 14 35 20 11 5 65 35 120 68 l100 58 0 653 0 654 -64
38 c-34 22 -64 39 -65 39 -2 0 -59 32 -127 71 -68 39 -137 79 -154 89 -339
193 -326 186 -338 173z"/>
<path d="M1478 3208 c-2 -7 -5 -198 -7 -425 l-2 -412 56 -35 c30 -20 58 -36
60 -36 3 0 22 -11 43 -23 36 -23 520 -303 612 -355 25 -13 50 -28 55 -32 6 -5
30 -19 55 -33 25 -13 92 -51 149 -85 l104 -60 31 19 c17 10 38 22 46 26 8 3
26 14 40 23 14 9 50 31 80 47 30 17 101 58 158 92 57 33 106 61 108 61 3 0 17
8 32 19 15 10 73 45 129 77 58 33 103 66 103 74 0 9 -79 60 -198 129 -108 62
-267 154 -352 204 -85 49 -171 98 -190 109 -59 34 -806 466 -950 550 -74 43
-140 78 -146 78 -7 0 -14 -6 -16 -12z"/>
<path d="M6310 2660 c-36 -20 -184 -106 -330 -190 -146 -84 -307 -177 -357
-207 -51 -29 -137 -78 -190 -109 -54 -31 -154 -89 -223 -129 -69 -40 -165 -96
-215 -125 -49 -29 -117 -68 -150 -87 -33 -18 -67 -38 -75 -43 -16 -10 -162
-95 -220 -128 -19 -10 -181 -104 -360 -208 -179 -103 -374 -216 -435 -251
-123 -71 -127 -74 -117 -89 6 -10 179 -114 392 -236 19 -11 99 -58 178 -104
79 -46 147 -84 152 -84 8 0 271 151 508 291 45 27 85 49 88 49 2 0 17 8 32 19
22 15 169 100 482 280 93 53 272 157 303 175 18 10 165 95 327 189 162 94 297
174 300 178 3 4 4 146 3 316 -1 169 -2 356 -2 414 -1 77 -5 108 -14 112 -7 3
-42 -12 -77 -33z"/>
<path d="M4495 2640 c-49 -27 -97 -54 -105 -59 -8 -5 -96 -56 -194 -113 -99
-57 -200 -115 -225 -130 -25 -15 -53 -31 -61 -35 -9 -5 -273 -156 -588 -338
-357 -206 -572 -336 -572 -345 0 -9 80 -61 198 -129 108 -62 209 -121 223
-131 14 -10 49 -31 78 -46 62 -34 68 -38 147 -86 34 -21 69 -38 78 -38 16 0
38 11 136 67 505 290 808 465 820 472 8 6 52 31 98 58 l83 47 -2 416 c-1 228
-4 421 -6 428 -7 18 -9 17 -108 -38z"/>
<path d="M1476 2182 c-9 -15 -9 -833 0 -842 5 -4 25 -17 44 -28 19 -10 139
-79 265 -152 127 -73 246 -142 265 -152 36 -21 293 -169 460 -266 52 -30 109
-63 125 -72 17 -9 134 -77 260 -150 127 -73 249 -143 272 -156 23 -13 108 -62
188 -109 81 -47 151 -85 157 -85 9 0 229 126 585 336 101 60 141 88 137 99 -3
8 -74 53 -157 101 -84 48 -235 135 -337 194 -102 59 -324 187 -495 285 -170
98 -391 225 -490 283 -99 58 -193 112 -210 122 -36 20 -152 86 -208 119 -416
241 -838 481 -846 481 -5 0 -12 -4 -15 -8z"/>
</g>
</svg>
