<svg version="1.1" viewBox="0.0 0.0 240.0 240.0" fill="none" stroke="none" stroke-linecap="square" stroke-miterlimit="10" xmlns:xlink="http://www.w3.org/1999/xlink" xmlns="http://www.w3.org/2000/svg"><clipPath id="p.0"><path d="m0 0l240.0 0l0 240.0l-240.0 0l0 -240.0z" clip-rule="nonzero"/></clipPath><g clip-path="url(#p.0)"><path fill="#000000" fill-opacity="0.0" d="m0 0l240.0 0l0 240.0l-240.0 0z" fill-rule="evenodd"/><path fill="#ff0000" d="m168.71811 84.83465l-17.093765 0.061767578l-22.024338 72.56815l17.093765 -0.061767578z" fill-rule="evenodd"/><path fill="#ff0000" d="m136.89766 141.11942l31.685043 0l0 16.314972l-31.685043 0z" fill-rule="evenodd"/><path fill="#ff0000" d="m129.29778 84.8832l24.944885 0l0 16.314964l-24.944885 0z" fill-rule="evenodd"/><path fill="#ff0000" d="m128.02017 84.64407l0 72.97638l-16.314957 0l0 -72.97638z" fill-rule="evenodd"/><path fill="#ff0000" d="m71.198524 141.3055l38.992126 0l0 16.314957l-38.992126 0z" fill-rule="evenodd"/><path fill="#ff0000" d="m87.15666 84.64407l0 72.97638l-16.314964 0l0 -72.97638z" fill-rule="evenodd"/><path fill="#1a1b17" d="m136.2889 225.41689l-16.09552 9.404312l-79.90346 -46.052734l0.09346008 -18.627167z" fill-rule="evenodd"/><path stroke="#ff0000" stroke-width="1.0" stroke-linejoin="round" stroke-linecap="butt" d="m136.2889 225.41689l-16.09552 9.404312l-79.90346 -46.052734l0.09346008 -18.627167z" fill-rule="evenodd"/><path fill="#1a1b17" d="m219.47687 157.90291l0.10292053 18.643555l-79.79639 46.208954l-16.086052 -9.387939z" fill-rule="evenodd"/><path stroke="#ff0000" stroke-width="1.0" stroke-linejoin="round" stroke-linecap="butt" d="m219.47687 157.90291l0.10292053 18.643555l-79.79639 46.208954l-16.086052 -9.387939z" fill-rule="evenodd"/><path fill="#1a1b17" d="m203.04932 53.183857l16.196854 9.236942l0.07873535 92.23478l-16.181107 9.236938z" fill-rule="evenodd"/><path stroke="#ff0000" stroke-width="1.0" stroke-linejoin="round" stroke-linecap="butt" d="m203.04932 53.183857l16.196854 9.236942l0.07873535 92.23478l-16.181107 9.236938z" fill-rule="evenodd"/><path fill="#1a1b17" d="m104.28059 14.583118l16.093727 -9.401209l79.87555 46.078007l-0.09526062 18.630287z" fill-rule="evenodd"/><path stroke="#ff0000" stroke-width="1.0" stroke-linejoin="round" stroke-linecap="butt" d="m104.28059 14.583118l16.093727 -9.401209l79.87555 46.078007l-0.09526062 18.630287z" fill-rule="evenodd"/><path fill="#1a1b17" d="m20.523127 81.64464l-0.1011219 -18.64045l79.82429 -46.183678l16.08786 9.39105z" fill-rule="evenodd"/><path stroke="#ff0000" stroke-width="1.0" stroke-linejoin="round" stroke-linecap="butt" d="m20.523127 81.64464l-0.1011219 -18.64045l79.82429 -46.183678l16.08786 9.39105z" fill-rule="evenodd"/><path fill="#1a1b17" d="m36.77518 186.67703l-16.196861 -9.236938l-0.078722 -92.23477l16.181093 -9.236946z" fill-rule="evenodd"/><path stroke="#ff0000" stroke-width="1.0" stroke-linejoin="round" stroke-linecap="butt" d="m36.77518 186.67703l-16.196861 -9.236938l-0.078722 -92.23477l16.181093 -9.236946z" fill-rule="evenodd"/><path fill="#1a1b17" d="m136.2415 38.552113l-16.224228 -9.4960785l-59.256687 34.142574l0.080020905 18.798065z" fill-rule="evenodd"/><path stroke="#ff0000" stroke-width="1.0" stroke-linejoin="round" stroke-linecap="butt" d="m136.2415 38.552113l-16.224228 -9.4960785l-59.256687 34.142574l0.080020905 18.798065z" fill-rule="evenodd"/><path fill="#1a1b17" d="m198.81113 94.13982l0.08918762 -18.813942l-58.196426 -33.684402l-16.215057 9.480202z" fill-rule="evenodd"/><path stroke="#ff0000" stroke-width="1.0" stroke-linejoin="round" stroke-linecap="butt" d="m198.81113 94.13982l0.08918762 -18.813942l-58.196426 -33.684402l-16.215057 9.480202z" fill-rule="evenodd"/><path fill="#1a1b17" d="m182.55144 175.94049l16.337418 -9.317032l0.05908203 -68.0544l-16.321243 -9.317024z" fill-rule="evenodd"/><path stroke="#ff0000" stroke-width="1.0" stroke-linejoin="round" stroke-linecap="butt" d="m182.55144 175.94049l16.337418 -9.317032l0.05908203 -68.0544l-16.321243 -9.317024z" fill-rule="evenodd"/><path fill="#1a1b17" d="m103.91593 202.46268l16.222412 9.49292l58.583076 -33.785065l-0.081848145 -18.801239z" fill-rule="evenodd"/><path stroke="#ff0000" stroke-width="1.0" stroke-linejoin="round" stroke-linecap="butt" d="m103.91593 202.46268l16.222412 9.49292l58.583076 -33.785065l-0.081848145 -18.801239z" fill-rule="evenodd"/><path fill="#1a1b17" d="m40.58782 147.05884l-0.08853531 18.812805l60.12655 34.79033l16.215721 -9.481323z" fill-rule="evenodd"/><path stroke="#ff0000" stroke-width="1.0" stroke-linejoin="round" stroke-linecap="butt" d="m40.58782 147.05884l-0.08853531 18.812805l60.12655 34.79033l16.215721 -9.481323z" fill-rule="evenodd"/><path fill="#1a1b17" d="m57.008366 65.145195l-16.337471 9.317024l-0.058979034 67.552734l16.321198 9.317017z" fill-rule="evenodd"/><path stroke="#ff0000" stroke-width="1.0" stroke-linejoin="round" stroke-linecap="butt" d="m57.008366 65.145195l-16.337471 9.317024l-0.058979034 67.552734l16.321198 9.317017z" fill-rule="evenodd"/><path fill="#1a1b17" d="m127.10509 85.775696l0 70.70845l-14.482788 0l0 -70.70845z" fill-rule="evenodd"/><path fill="#1a1b17" d="m72.099754 142.00525l37.196854 0l0 14.48819l-37.196854 0z" fill-rule="evenodd"/><path fill="#1a1b17" d="m86.244576 85.767815l0 70.70867l-14.48819 0l0 -70.70867z" fill-rule="evenodd"/><path fill="#1a1b17" d="m167.22981 85.69685l-15.164215 0.050079346l-21.497192 70.816055l15.164215 -0.050079346z" fill-rule="evenodd"/><path fill="#1a1b17" d="m130.43164 85.801834l22.677155 0l0 14.48819l-22.677155 0z" fill-rule="evenodd"/><path fill="#1a1b17" d="m137.83861 142.03806l29.795273 0l0 14.48819l-29.795273 0z" fill-rule="evenodd"/></g></svg>