<svg version="1.1" viewBox="0.0 0.0 160.3202099737533 160.3202099737533" fill="none" stroke="none" stroke-linecap="square" stroke-miterlimit="10" xmlns:xlink="http://www.w3.org/1999/xlink" xmlns="http://www.w3.org/2000/svg"><clipPath id="p.0"><path d="m0 0l160.3202 0l0 160.3202l-160.3202 0l0 -160.3202z" clip-rule="nonzero"/></clipPath><g clip-path="url(#p.0)"><path fill="#000000" fill-opacity="0.0" d="m0 0l160.3202 0l0 160.3202l-160.3202 0z" fill-rule="evenodd"/><path fill="#ffffff" d="m129.70341 32.64l16.197052 9.236942l0.046829224 53.52612l-16.180893 9.236938z" fill-rule="evenodd"/><path stroke="#000000" stroke-width="1.0" stroke-linejoin="round" stroke-linecap="butt" d="m129.70341 32.64l16.197052 9.236942l0.046829224 53.52612l-16.180893 9.236938z" fill-rule="evenodd"/><path fill="#ffffff" d="m30.616795 127.68l-16.197056 -9.236938l-0.046830177 -53.526123l16.180895 -9.236938z" fill-rule="evenodd"/><path stroke="#000000" stroke-width="1.0" stroke-linejoin="round" stroke-linecap="butt" d="m30.616795 127.68l-16.197056 -9.236938l-0.046830177 -53.526123l16.180895 -9.236938z" fill-rule="evenodd"/><path fill="#ffffff" d="m109.28879 116.31774l16.321075 -9.308823l0.01927948 -29.382355l-16.308853 -9.308823z" fill-rule="evenodd"/><path stroke="#000000" stroke-width="1.0" stroke-linejoin="round" stroke-linecap="butt" d="m109.28879 116.31774l16.321075 -9.308823l0.01927948 -29.382355l-16.308853 -9.308823z" fill-rule="evenodd"/><path fill="#ffffff" d="m51.031574 44.019684l-16.321072 9.308826l-0.01927948 29.38235l16.308853 9.308823z" fill-rule="evenodd"/><path stroke="#000000" stroke-width="1.0" stroke-linejoin="round" stroke-linecap="butt" d="m51.031574 44.019684l-16.321072 9.308826l-0.01927948 29.38235l16.308853 9.308823z" fill-rule="evenodd"/><path fill="#ffffff" d="m63.41907 123.21623l16.221973 9.4796295l25.454758 -14.674477l-0.09297943 -18.777878z" fill-rule="evenodd"/><path stroke="#000000" stroke-width="1.0" stroke-linejoin="round" stroke-linecap="butt" d="m63.41907 123.21623l16.221973 9.4796295l25.454758 -14.674477l-0.09297943 -18.777878z" fill-rule="evenodd"/><path fill="#ffffff" d="m96.90058 36.616455l-16.221977 -9.479633l-25.454758 14.674477l0.09298706 18.777882z" fill-rule="evenodd"/><path stroke="#000000" stroke-width="1.0" stroke-linejoin="round" stroke-linecap="butt" d="m96.90058 36.616455l-16.221977 -9.479633l-25.454758 14.674477l0.09298706 18.777882z" fill-rule="evenodd"/><path fill="#ffffff" d="m34.283916 87.05758l-0.099090576 18.78846l25.435474 14.7078705l16.215866 -9.469055z" fill-rule="evenodd"/><path stroke="#000000" stroke-width="1.0" stroke-linejoin="round" stroke-linecap="butt" d="m34.283916 87.05758l-0.099090576 18.78846l25.435474 14.7078705l16.215866 -9.469055z" fill-rule="evenodd"/><path fill="#ffffff" d="m126.022644 72.75586l0.099090576 -18.78846l-25.43547 -14.7078705l-16.215874 9.469055z" fill-rule="evenodd"/><path stroke="#000000" stroke-width="1.0" stroke-linejoin="round" stroke-linecap="butt" d="m126.022644 72.75586l0.099090576 -18.78846l-25.43547 -14.7078705l-16.215874 9.469055z" fill-rule="evenodd"/><path fill="#ffffff" d="m146.07872 99.0568l0.10115051 18.640495l-46.344032 26.813492l-16.087822 -9.390991z" fill-rule="evenodd"/><path stroke="#000000" stroke-width="1.0" stroke-linejoin="round" stroke-linecap="butt" d="m146.07872 99.0568l0.10115051 18.640495l-46.344032 26.813492l-16.087822 -9.390991z" fill-rule="evenodd"/><path fill="#ffffff" d="m14.22836 60.75664l-0.10114956 -18.640495l46.344032 -26.8135l16.087826 9.391002z" fill-rule="evenodd"/><path stroke="#000000" stroke-width="1.0" stroke-linejoin="round" stroke-linecap="butt" d="m14.22836 60.75664l-0.10114956 -18.640495l46.344032 -26.8135l16.087826 9.391002z" fill-rule="evenodd"/><path fill="#ffffff" d="m96.54198 146.5768l-16.095833 9.404877l-46.359512 -26.715256l0.09313965 -18.626625z" fill-rule="evenodd"/><path stroke="#000000" stroke-width="1.0" stroke-linejoin="round" stroke-linecap="butt" d="m96.54198 146.5768l-16.095833 9.404877l-46.359512 -26.715256l0.09313965 -18.626625z" fill-rule="evenodd"/><path fill="#ffffff" d="m63.77823 13.23664l16.095833 -9.404871l46.359512 26.715252l-0.09313965 18.626627z" fill-rule="evenodd"/><path stroke="#000000" stroke-width="1.0" stroke-linejoin="round" stroke-linecap="butt" d="m63.77823 13.23664l16.095833 -9.404871l46.359512 26.715252l-0.09313965 18.626627z" fill-rule="evenodd"/></g></svg>