<svg version="1.1" viewBox="0.0 0.0 240.0 240.0" fill="none" stroke="none" stroke-linecap="square" stroke-miterlimit="10" xmlns:xlink="http://www.w3.org/1999/xlink" xmlns="http://www.w3.org/2000/svg">
    <g clip-path="url(#p.0)">
        <path  d="m127.10509 85.775696l0 70.70845l-14.482788 0l0 -70.70845z" fill-rule="evenodd"/>

        <path  d="m77.842384 142.01312l31.46457 0l0 14.48819l-31.46457 0z" fill-rule="evenodd"/>
        <path  d="m86.23933 85.775696l0 70.70845l-14.482788 0l0 -70.70845z" fill-rule="evenodd"/>

        <path  d="m86.23933 85.775696l0 70.70845l-14.482788 0l0 -70.70845z" fill="white" fill-rule="evenodd"/>
        <path  d="m77.842384  142.01312   l 31.46457 0   l 0 14.48819   l -31.46457 0 z" fill="black" fill-rule="evenodd"/>

        <path  d="m167.22981 85.69685l-15.164215 0.050079346l-21.497192 70.816055l15.164215 -0.050079346z" fill-rule="evenodd"/>
        <path  d="m130.43164 85.801834l22.67479 0l0 14.482796l-22.67479 0z" fill-rule="evenodd"/>
        <path  d="m137.83861 142.03806l29.804352 0l0 14.482788l-29.804352 0z" fill-rule="evenodd"/>
    </g>
</svg>
